<svg width="1440" height="634" viewBox="0 0 1440 634" fill="none" xmlns="http://www.w3.org/2000/svg">
<g opacity="0.3" filter="url(#filter0_f_28_3779)">
<path d="M787.263 500.419C730.312 508.011 710.378 455.986 634.501 476C538.745 501.256 246.059 311.74 264.001 425C288.001 576.5 628.255 804.651 757.078 787.477C885.901 770.303 956.102 740.925 980.059 708.781C1032.26 638.743 916.086 483.245 787.263 500.419Z" fill="url(#paint0_linear_28_3779)"/>
<path d="M765.893 501.743C629.959 524.489 465 583 616.535 653.864C634.829 678.795 813.783 710.971 949.717 688.224C1085.65 665.478 1195.42 403.392 1159 318.5C1122.58 233.608 901.827 478.996 765.893 501.743Z" fill="url(#paint1_linear_28_3779)"/>
</g>
<defs>
<filter id="filter0_f_28_3779" x="-36.7891" y="0.717529" width="1502.85" height="1087.68" filterUnits="userSpaceOnUse" color-interpolation-filters="sRGB">
<feFlood flood-opacity="0" result="BackgroundImageFix"/>
<feBlend mode="normal" in="SourceGraphic" in2="BackgroundImageFix" result="shape"/>
<feGaussianBlur stdDeviation="150" result="effect1_foregroundBlur_28_3779"/>
</filter>
<linearGradient id="paint0_linear_28_3779" x1="310.644" y1="534.476" x2="595.59" y2="735.66" gradientUnits="userSpaceOnUse">
<stop stop-color="#5FECFF"/>
<stop offset="1" stop-color="#0085FF"/>
</linearGradient>
<linearGradient id="paint1_linear_28_3779" x1="957.301" y1="344.185" x2="747.099" y2="564.116" gradientUnits="userSpaceOnUse">
<stop stop-color="#FFB951"/>
<stop offset="1" stop-color="#F90068"/>
</linearGradient>
</defs>
</svg>
