<svg width="16" height="16" viewBox="0 0 16 16" fill="none" xmlns="http://www.w3.org/2000/svg">
<g clip-path="url(#clip0_19_96)">
<path fill-rule="evenodd" clip-rule="evenodd" d="M2.05907 0.333344C0.92188 0.333344 0 1.25981 0 2.40266C0 3.54552 0.92188 4.47198 2.05907 4.47198C3.19627 4.47198 4.11815 3.54552 4.11815 2.40266C4.11815 1.25981 3.19627 0.333344 2.05907 0.333344ZM1.14768 2.40266C1.14768 1.89681 1.55573 1.48674 2.05907 1.48674C2.56242 1.48674 2.97047 1.89681 2.97047 2.40266C2.97047 2.90852 2.56242 3.3186 2.05907 3.3186C1.55573 3.3186 1.14768 2.90852 1.14768 2.40266Z" fill="#0A0A0D"/>
<path fill-rule="evenodd" clip-rule="evenodd" d="M10.9705 4.81122C9.63652 4.81122 8.35726 5.34376 7.41406 6.29167C6.47082 7.23961 5.94092 8.52521 5.94092 9.86581V15.09C5.94092 15.4085 6.19784 15.6667 6.51476 15.6667H9.48519C9.80212 15.6667 10.0591 15.4085 10.0591 15.09V9.86581C10.0591 9.62288 10.1551 9.38988 10.326 9.21814C10.4969 9.04635 10.7287 8.94988 10.9705 8.94988C11.2122 8.94988 11.444 9.04635 11.6149 9.21814C11.7859 9.38988 11.8819 9.62288 11.8819 9.86581V15.09C11.8819 15.4085 12.1388 15.6667 12.4557 15.6667H15.4261C15.7431 15.6667 16 15.4085 16 15.09V9.86581C16 8.52521 15.4701 7.23961 14.5269 6.29167C13.5837 5.34376 12.3044 4.81122 10.9705 4.81122ZM10.9705 5.96461C9.94092 5.96461 8.95359 6.37563 8.22559 7.10721C7.49759 7.83888 7.08859 8.83115 7.08859 9.86581V14.5133H8.91139V9.86581C8.91139 9.31695 9.12832 8.79061 9.51446 8.40254C9.90059 8.01448 10.4243 7.79648 10.9705 7.79648C11.5165 7.79648 12.0403 8.01448 12.4265 8.40254C12.8126 8.79061 13.0295 9.31695 13.0295 9.86581V14.5133H14.8523V9.86581C14.8523 8.83115 14.4433 7.83888 13.7153 7.10721C12.9873 6.37563 12 5.96461 10.9705 5.96461Z" fill="#0A0A0D"/>
<path fill-rule="evenodd" clip-rule="evenodd" d="M0 6.13423C0 5.81573 0.256917 5.55753 0.57384 5.55753H3.54431C3.86123 5.55753 4.11815 5.81573 4.11815 6.13423V15.09C4.11815 15.4085 3.86123 15.6667 3.54431 15.6667H0.57384C0.256917 15.6667 0 15.4085 0 15.09V6.13423ZM1.14768 6.71094V14.5133H2.97047V6.71094H1.14768Z" fill="#0A0A0D"/>
</g>
<defs>
<clipPath id="clip0_19_96">
<rect width="16" height="16" fill="white"/>
</clipPath>
</defs>
</svg>
